<svg xmlns="http://www.w3.org/2000/svg" height="32" width="32" viewBox="0 0 32 32">
 <g fill="#fff">
  <path d="m15.998 1.9623c7.7226 0 14 6.2774 14 14s-6.2774 14-14 14-14-6.2774-14-14 6.2774-14 14-14zm0 1.574c-6.8722 0-12.426 5.5539-12.426 12.426 0 6.8722 5.5539 12.426 12.426 12.426 6.8722 0 12.426-5.5539 12.426-12.426 0-6.8722-5.5539-12.426-12.426-12.426z"/>
  <path d="m17.371 23.195-3.3749-5.5215h-3.571v5.5215h-3.0447v-14.542h7.2657q2.6008 0 4.0148 1.125 1.414 1.1147 1.414 3.2098 0 1.5275-0.86694 2.6421-0.86694 1.1043-2.3428 1.4552l3.9322 6.1099h-3.4265zm-0.361-10.084q0-2.0951-2.6834-2.0951h-3.9012v4.2935h3.9838q1.2798 0 1.9403-0.57799 0.66052-0.57795 0.66052-1.6204z"/>
  <path d="m26.411 11.588h-5.6687v1.0208h4.4556v2.6542h-4.2695v1.0208h4.2695v3.2487h-4.5639v1.0208h5.7768v-8.9652z"/>
 </g>
</svg>
